<?xml version="1.0" encoding="UTF-8"?>
<svg xmlns="http://www.w3.org/2000/svg" xmlns:xlink="http://www.w3.org/1999/xlink" width="504pt" height="288pt" viewBox="0 0 504 288" version="1.1">
<defs>
<clipPath id="clip1">
  <path d="M 40.765625 31.929688 L 490 31.929688 L 490 252 L 40.765625 252 Z "/>
</clipPath>
<clipPath id="clip2">
  <path d="M 40.765625 228 L 490 228 L 490 230 L 40.765625 230 Z "/>
</clipPath>
<clipPath id="clip3">
  <path d="M 40.765625 185 L 490 185 L 490 186 L 40.765625 186 Z "/>
</clipPath>
<clipPath id="clip4">
  <path d="M 40.765625 141 L 490 141 L 490 142 L 40.765625 142 Z "/>
</clipPath>
<clipPath id="clip5">
  <path d="M 40.765625 97 L 490 97 L 490 98 L 40.765625 98 Z "/>
</clipPath>
<clipPath id="clip6">
  <path d="M 40.765625 53 L 490 53 L 490 55 L 40.765625 55 Z "/>
</clipPath>
<clipPath id="clip7">
  <path d="M 59 31.929688 L 61 31.929688 L 61 252 L 59 252 Z "/>
</clipPath>
<clipPath id="clip8">
  <path d="M 97 31.929688 L 99 31.929688 L 99 252 L 97 252 Z "/>
</clipPath>
<clipPath id="clip9">
  <path d="M 136 31.929688 L 137 31.929688 L 137 252 L 136 252 Z "/>
</clipPath>
<clipPath id="clip10">
  <path d="M 174 31.929688 L 175 31.929688 L 175 252 L 174 252 Z "/>
</clipPath>
<clipPath id="clip11">
  <path d="M 212 31.929688 L 214 31.929688 L 214 252 L 212 252 Z "/>
</clipPath>
<clipPath id="clip12">
  <path d="M 250 31.929688 L 252 31.929688 L 252 252 L 250 252 Z "/>
</clipPath>
<clipPath id="clip13">
  <path d="M 289 31.929688 L 290 31.929688 L 290 252 L 289 252 Z "/>
</clipPath>
<clipPath id="clip14">
  <path d="M 327 31.929688 L 328 31.929688 L 328 252 L 327 252 Z "/>
</clipPath>
<clipPath id="clip15">
  <path d="M 365 31.929688 L 366 31.929688 L 366 252 L 365 252 Z "/>
</clipPath>
<clipPath id="clip16">
  <path d="M 403 31.929688 L 405 31.929688 L 405 252 L 403 252 Z "/>
</clipPath>
<clipPath id="clip17">
  <path d="M 441 31.929688 L 443 31.929688 L 443 252 L 441 252 Z "/>
</clipPath>
<clipPath id="clip18">
  <path d="M 461 31.929688 L 462 31.929688 L 462 252 L 461 252 Z "/>
</clipPath>
<clipPath id="clip19">
  <path d="M 40.765625 250 L 490.597656 250 L 490.597656 252 L 40.765625 252 Z "/>
</clipPath>
<clipPath id="clip20">
  <path d="M 40.765625 206 L 490.597656 206 L 490.597656 208 L 40.765625 208 Z "/>
</clipPath>
<clipPath id="clip21">
  <path d="M 40.765625 162 L 490.597656 162 L 490.597656 164 L 40.765625 164 Z "/>
</clipPath>
<clipPath id="clip22">
  <path d="M 40.765625 119 L 490.597656 119 L 490.597656 121 L 40.765625 121 Z "/>
</clipPath>
<clipPath id="clip23">
  <path d="M 40.765625 75 L 490.597656 75 L 490.597656 77 L 40.765625 77 Z "/>
</clipPath>
<clipPath id="clip24">
  <path d="M 40.765625 31.929688 L 490.597656 31.929688 L 490.597656 33 L 40.765625 33 Z "/>
</clipPath>
<clipPath id="clip25">
  <path d="M 40.765625 31.929688 L 42 31.929688 L 42 252 L 40.765625 252 Z "/>
</clipPath>
<clipPath id="clip26">
  <path d="M 78 31.929688 L 80 31.929688 L 80 252 L 78 252 Z "/>
</clipPath>
<clipPath id="clip27">
  <path d="M 116 31.929688 L 118 31.929688 L 118 252 L 116 252 Z "/>
</clipPath>
<clipPath id="clip28">
  <path d="M 154 31.929688 L 156 31.929688 L 156 252 L 154 252 Z "/>
</clipPath>
<clipPath id="clip29">
  <path d="M 193 31.929688 L 195 31.929688 L 195 252 L 193 252 Z "/>
</clipPath>
<clipPath id="clip30">
  <path d="M 231 31.929688 L 233 31.929688 L 233 252 L 231 252 Z "/>
</clipPath>
<clipPath id="clip31">
  <path d="M 269 31.929688 L 271 31.929688 L 271 252 L 269 252 Z "/>
</clipPath>
<clipPath id="clip32">
  <path d="M 307 31.929688 L 309 31.929688 L 309 252 L 307 252 Z "/>
</clipPath>
<clipPath id="clip33">
  <path d="M 346 31.929688 L 348 31.929688 L 348 252 L 346 252 Z "/>
</clipPath>
<clipPath id="clip34">
  <path d="M 384 31.929688 L 386 31.929688 L 386 252 L 384 252 Z "/>
</clipPath>
<clipPath id="clip35">
  <path d="M 422 31.929688 L 424 31.929688 L 424 252 L 422 252 Z "/>
</clipPath>
<clipPath id="clip36">
  <path d="M 40.765625 250 L 490.597656 250 L 490.597656 252 L 40.765625 252 Z "/>
</clipPath>
</defs>
<g id="surface71">
<rect x="0" y="0" width="504" height="288" style="fill:rgb(100%,100%,100%);fill-opacity:1;stroke:none;"/>
<rect x="0" y="0" width="504" height="288" style="fill:rgb(100%,100%,100%);fill-opacity:1;stroke:none;"/>
<path style="fill:none;stroke-width:1.062992;stroke-linecap:round;stroke-linejoin:round;stroke:rgb(100%,100%,100%);stroke-opacity:1;stroke-miterlimit:10;" d="M 0 288 L 504 288 L 504 0 L 0 0 Z "/>
<g clip-path="url(#clip1)" clip-rule="nonzero">
<path style=" stroke:none;fill-rule:nonzero;fill:rgb(89.803922%,89.803922%,89.803922%);fill-opacity:1;" d="M 40.765625 251.027344 L 489.597656 251.027344 L 489.597656 31.925781 L 40.765625 31.925781 Z "/>
</g>
<g clip-path="url(#clip2)" clip-rule="nonzero">
<path style="fill:none;stroke-width:0.531496;stroke-linecap:butt;stroke-linejoin:round;stroke:rgb(94.901961%,94.901961%,94.901961%);stroke-opacity:1;stroke-miterlimit:10;" d="M 40.765625 229.117188 L 489.601562 229.117188 "/>
</g>
<g clip-path="url(#clip3)" clip-rule="nonzero">
<path style="fill:none;stroke-width:0.531496;stroke-linecap:butt;stroke-linejoin:round;stroke:rgb(94.901961%,94.901961%,94.901961%);stroke-opacity:1;stroke-miterlimit:10;" d="M 40.765625 185.296875 L 489.601562 185.296875 "/>
</g>
<g clip-path="url(#clip4)" clip-rule="nonzero">
<path style="fill:none;stroke-width:0.531496;stroke-linecap:butt;stroke-linejoin:round;stroke:rgb(94.901961%,94.901961%,94.901961%);stroke-opacity:1;stroke-miterlimit:10;" d="M 40.765625 141.480469 L 489.601562 141.480469 "/>
</g>
<g clip-path="url(#clip5)" clip-rule="nonzero">
<path style="fill:none;stroke-width:0.531496;stroke-linecap:butt;stroke-linejoin:round;stroke:rgb(94.901961%,94.901961%,94.901961%);stroke-opacity:1;stroke-miterlimit:10;" d="M 40.765625 97.660156 L 489.601562 97.660156 "/>
</g>
<g clip-path="url(#clip6)" clip-rule="nonzero">
<path style="fill:none;stroke-width:0.531496;stroke-linecap:butt;stroke-linejoin:round;stroke:rgb(94.901961%,94.901961%,94.901961%);stroke-opacity:1;stroke-miterlimit:10;" d="M 40.765625 53.839844 L 489.601562 53.839844 "/>
</g>
<g clip-path="url(#clip7)" clip-rule="nonzero">
<path style="fill:none;stroke-width:0.531496;stroke-linecap:butt;stroke-linejoin:round;stroke:rgb(94.901961%,94.901961%,94.901961%);stroke-opacity:1;stroke-miterlimit:10;" d="M 59.882812 251.027344 L 59.882812 31.929688 "/>
</g>
<g clip-path="url(#clip8)" clip-rule="nonzero">
<path style="fill:none;stroke-width:0.531496;stroke-linecap:butt;stroke-linejoin:round;stroke:rgb(94.901961%,94.901961%,94.901961%);stroke-opacity:1;stroke-miterlimit:10;" d="M 98.113281 251.027344 L 98.113281 31.929688 "/>
</g>
<g clip-path="url(#clip9)" clip-rule="nonzero">
<path style="fill:none;stroke-width:0.531496;stroke-linecap:butt;stroke-linejoin:round;stroke:rgb(94.901961%,94.901961%,94.901961%);stroke-opacity:1;stroke-miterlimit:10;" d="M 136.34375 251.027344 L 136.34375 31.929688 "/>
</g>
<g clip-path="url(#clip10)" clip-rule="nonzero">
<path style="fill:none;stroke-width:0.531496;stroke-linecap:butt;stroke-linejoin:round;stroke:rgb(94.901961%,94.901961%,94.901961%);stroke-opacity:1;stroke-miterlimit:10;" d="M 174.574219 251.027344 L 174.574219 31.929688 "/>
</g>
<g clip-path="url(#clip11)" clip-rule="nonzero">
<path style="fill:none;stroke-width:0.531496;stroke-linecap:butt;stroke-linejoin:round;stroke:rgb(94.901961%,94.901961%,94.901961%);stroke-opacity:1;stroke-miterlimit:10;" d="M 212.808594 251.027344 L 212.808594 31.929688 "/>
</g>
<g clip-path="url(#clip12)" clip-rule="nonzero">
<path style="fill:none;stroke-width:0.531496;stroke-linecap:butt;stroke-linejoin:round;stroke:rgb(94.901961%,94.901961%,94.901961%);stroke-opacity:1;stroke-miterlimit:10;" d="M 251.039062 251.027344 L 251.039062 31.929688 "/>
</g>
<g clip-path="url(#clip13)" clip-rule="nonzero">
<path style="fill:none;stroke-width:0.531496;stroke-linecap:butt;stroke-linejoin:round;stroke:rgb(94.901961%,94.901961%,94.901961%);stroke-opacity:1;stroke-miterlimit:10;" d="M 289.269531 251.027344 L 289.269531 31.929688 "/>
</g>
<g clip-path="url(#clip14)" clip-rule="nonzero">
<path style="fill:none;stroke-width:0.531496;stroke-linecap:butt;stroke-linejoin:round;stroke:rgb(94.901961%,94.901961%,94.901961%);stroke-opacity:1;stroke-miterlimit:10;" d="M 327.5 251.027344 L 327.5 31.929688 "/>
</g>
<g clip-path="url(#clip15)" clip-rule="nonzero">
<path style="fill:none;stroke-width:0.531496;stroke-linecap:butt;stroke-linejoin:round;stroke:rgb(94.901961%,94.901961%,94.901961%);stroke-opacity:1;stroke-miterlimit:10;" d="M 365.730469 251.027344 L 365.730469 31.929688 "/>
</g>
<g clip-path="url(#clip16)" clip-rule="nonzero">
<path style="fill:none;stroke-width:0.531496;stroke-linecap:butt;stroke-linejoin:round;stroke:rgb(94.901961%,94.901961%,94.901961%);stroke-opacity:1;stroke-miterlimit:10;" d="M 403.960938 251.027344 L 403.960938 31.929688 "/>
</g>
<g clip-path="url(#clip17)" clip-rule="nonzero">
<path style="fill:none;stroke-width:0.531496;stroke-linecap:butt;stroke-linejoin:round;stroke:rgb(94.901961%,94.901961%,94.901961%);stroke-opacity:1;stroke-miterlimit:10;" d="M 442.195312 251.027344 L 442.195312 31.929688 "/>
</g>
<g clip-path="url(#clip18)" clip-rule="nonzero">
<path style="fill:none;stroke-width:0.531496;stroke-linecap:butt;stroke-linejoin:round;stroke:rgb(94.901961%,94.901961%,94.901961%);stroke-opacity:1;stroke-miterlimit:10;" d="M 461.308594 251.027344 L 461.308594 31.929688 "/>
</g>
<g clip-path="url(#clip19)" clip-rule="nonzero">
<path style="fill:none;stroke-width:1.062992;stroke-linecap:butt;stroke-linejoin:round;stroke:rgb(100%,100%,100%);stroke-opacity:1;stroke-miterlimit:10;" d="M 40.765625 251.027344 L 489.601562 251.027344 "/>
</g>
<g clip-path="url(#clip20)" clip-rule="nonzero">
<path style="fill:none;stroke-width:1.062992;stroke-linecap:butt;stroke-linejoin:round;stroke:rgb(100%,100%,100%);stroke-opacity:1;stroke-miterlimit:10;" d="M 40.765625 207.207031 L 489.601562 207.207031 "/>
</g>
<g clip-path="url(#clip21)" clip-rule="nonzero">
<path style="fill:none;stroke-width:1.062992;stroke-linecap:butt;stroke-linejoin:round;stroke:rgb(100%,100%,100%);stroke-opacity:1;stroke-miterlimit:10;" d="M 40.765625 163.386719 L 489.601562 163.386719 "/>
</g>
<g clip-path="url(#clip22)" clip-rule="nonzero">
<path style="fill:none;stroke-width:1.062992;stroke-linecap:butt;stroke-linejoin:round;stroke:rgb(100%,100%,100%);stroke-opacity:1;stroke-miterlimit:10;" d="M 40.765625 119.570312 L 489.601562 119.570312 "/>
</g>
<g clip-path="url(#clip23)" clip-rule="nonzero">
<path style="fill:none;stroke-width:1.062992;stroke-linecap:butt;stroke-linejoin:round;stroke:rgb(100%,100%,100%);stroke-opacity:1;stroke-miterlimit:10;" d="M 40.765625 75.75 L 489.601562 75.75 "/>
</g>
<g clip-path="url(#clip24)" clip-rule="nonzero">
<path style="fill:none;stroke-width:1.062992;stroke-linecap:butt;stroke-linejoin:round;stroke:rgb(100%,100%,100%);stroke-opacity:1;stroke-miterlimit:10;" d="M 40.765625 31.929688 L 489.601562 31.929688 "/>
</g>
<g clip-path="url(#clip25)" clip-rule="nonzero">
<path style="fill:none;stroke-width:1.062992;stroke-linecap:butt;stroke-linejoin:round;stroke:rgb(100%,100%,100%);stroke-opacity:1;stroke-miterlimit:10;" d="M 40.765625 251.027344 L 40.765625 31.929688 "/>
</g>
<g clip-path="url(#clip26)" clip-rule="nonzero">
<path style="fill:none;stroke-width:1.062992;stroke-linecap:butt;stroke-linejoin:round;stroke:rgb(100%,100%,100%);stroke-opacity:1;stroke-miterlimit:10;" d="M 79 251.027344 L 79 31.929688 "/>
</g>
<g clip-path="url(#clip27)" clip-rule="nonzero">
<path style="fill:none;stroke-width:1.062992;stroke-linecap:butt;stroke-linejoin:round;stroke:rgb(100%,100%,100%);stroke-opacity:1;stroke-miterlimit:10;" d="M 117.230469 251.027344 L 117.230469 31.929688 "/>
</g>
<g clip-path="url(#clip28)" clip-rule="nonzero">
<path style="fill:none;stroke-width:1.062992;stroke-linecap:butt;stroke-linejoin:round;stroke:rgb(100%,100%,100%);stroke-opacity:1;stroke-miterlimit:10;" d="M 155.460938 251.027344 L 155.460938 31.929688 "/>
</g>
<g clip-path="url(#clip29)" clip-rule="nonzero">
<path style="fill:none;stroke-width:1.062992;stroke-linecap:butt;stroke-linejoin:round;stroke:rgb(100%,100%,100%);stroke-opacity:1;stroke-miterlimit:10;" d="M 193.691406 251.027344 L 193.691406 31.929688 "/>
</g>
<g clip-path="url(#clip30)" clip-rule="nonzero">
<path style="fill:none;stroke-width:1.062992;stroke-linecap:butt;stroke-linejoin:round;stroke:rgb(100%,100%,100%);stroke-opacity:1;stroke-miterlimit:10;" d="M 231.921875 251.027344 L 231.921875 31.929688 "/>
</g>
<g clip-path="url(#clip31)" clip-rule="nonzero">
<path style="fill:none;stroke-width:1.062992;stroke-linecap:butt;stroke-linejoin:round;stroke:rgb(100%,100%,100%);stroke-opacity:1;stroke-miterlimit:10;" d="M 270.152344 251.027344 L 270.152344 31.929688 "/>
</g>
<g clip-path="url(#clip32)" clip-rule="nonzero">
<path style="fill:none;stroke-width:1.062992;stroke-linecap:butt;stroke-linejoin:round;stroke:rgb(100%,100%,100%);stroke-opacity:1;stroke-miterlimit:10;" d="M 308.382812 251.027344 L 308.382812 31.929688 "/>
</g>
<g clip-path="url(#clip33)" clip-rule="nonzero">
<path style="fill:none;stroke-width:1.062992;stroke-linecap:butt;stroke-linejoin:round;stroke:rgb(100%,100%,100%);stroke-opacity:1;stroke-miterlimit:10;" d="M 346.617188 251.027344 L 346.617188 31.929688 "/>
</g>
<g clip-path="url(#clip34)" clip-rule="nonzero">
<path style="fill:none;stroke-width:1.062992;stroke-linecap:butt;stroke-linejoin:round;stroke:rgb(100%,100%,100%);stroke-opacity:1;stroke-miterlimit:10;" d="M 384.847656 251.027344 L 384.847656 31.929688 "/>
</g>
<g clip-path="url(#clip35)" clip-rule="nonzero">
<path style="fill:none;stroke-width:1.062992;stroke-linecap:butt;stroke-linejoin:round;stroke:rgb(100%,100%,100%);stroke-opacity:1;stroke-miterlimit:10;" d="M 423.078125 251.027344 L 423.078125 31.929688 "/>
</g>
<path style="fill:none;stroke-width:1.700787;stroke-linecap:butt;stroke-linejoin:round;stroke:rgb(20%,20%,20%);stroke-opacity:1;stroke-miterlimit:1;" d="M 79.914062 235.671875 L 119.0625 240.347656 L 158.214844 241.253906 L 197.363281 241.707031 L 236.511719 241.472656 L 275.660156 241.601562 L 314.808594 241.574219 L 353.957031 241.636719 "/>
<path style="fill:none;stroke-width:1.700787;stroke-linecap:butt;stroke-linejoin:round;stroke:rgb(100%,0%,0%);stroke-opacity:1;stroke-miterlimit:1;" d="M 79.914062 228.09375 L 119.0625 182.570312 L 158.214844 139.28125 L 197.363281 105.804688 L 236.511719 85.175781 L 275.660156 73.933594 L 314.808594 62.550781 L 353.957031 54.140625 L 393.105469 49.621094 "/>
<path style="fill:none;stroke-width:1.700787;stroke-linecap:butt;stroke-linejoin:round;stroke:rgb(0%,39.215686%,0%);stroke-opacity:1;stroke-miterlimit:1;" d="M 79.914062 222.40625 L 119.0625 228.773438 L 158.214844 229.3125 L 197.363281 231.082031 L 236.511719 229.554688 L 275.660156 230.570312 L 314.808594 229.972656 L 353.957031 230.421875 L 393.105469 230.34375 L 432.253906 230.871094 "/>
<path style=" stroke:none;fill-rule:nonzero;fill:rgb(20%,20%,20%);fill-opacity:1;" d="M 83.316406 235.671875 C 83.316406 240.207031 76.515625 240.207031 76.515625 235.671875 C 76.515625 231.136719 83.316406 231.136719 83.316406 235.671875 "/>
<path style=" stroke:none;fill-rule:nonzero;fill:rgb(20%,20%,20%);fill-opacity:1;" d="M 122.464844 240.347656 C 122.464844 244.882812 115.664062 244.882812 115.664062 240.347656 C 115.664062 235.8125 122.464844 235.8125 122.464844 240.347656 "/>
<path style=" stroke:none;fill-rule:nonzero;fill:rgb(20%,20%,20%);fill-opacity:1;" d="M 161.613281 241.253906 C 161.613281 245.792969 154.8125 245.792969 154.8125 241.253906 C 154.8125 236.71875 161.613281 236.71875 161.613281 241.253906 "/>
<path style=" stroke:none;fill-rule:nonzero;fill:rgb(20%,20%,20%);fill-opacity:1;" d="M 200.761719 241.707031 C 200.761719 246.242188 193.960938 246.242188 193.960938 241.707031 C 193.960938 237.171875 200.761719 237.171875 200.761719 241.707031 "/>
<path style=" stroke:none;fill-rule:nonzero;fill:rgb(20%,20%,20%);fill-opacity:1;" d="M 239.910156 241.472656 C 239.910156 246.007812 233.109375 246.007812 233.109375 241.472656 C 233.109375 236.9375 239.910156 236.9375 239.910156 241.472656 "/>
<path style=" stroke:none;fill-rule:nonzero;fill:rgb(20%,20%,20%);fill-opacity:1;" d="M 279.058594 241.601562 C 279.058594 246.136719 272.257812 246.136719 272.257812 241.601562 C 272.257812 237.066406 279.058594 237.066406 279.058594 241.601562 "/>
<path style=" stroke:none;fill-rule:nonzero;fill:rgb(20%,20%,20%);fill-opacity:1;" d="M 318.210938 241.574219 C 318.210938 246.109375 311.40625 246.109375 311.40625 241.574219 C 311.40625 237.039062 318.210938 237.039062 318.210938 241.574219 "/>
<path style=" stroke:none;fill-rule:nonzero;fill:rgb(20%,20%,20%);fill-opacity:1;" d="M 357.359375 241.636719 C 357.359375 246.171875 350.554688 246.171875 350.554688 241.636719 C 350.554688 237.101562 357.359375 237.101562 357.359375 241.636719 "/>
<path style=" stroke:none;fill-rule:nonzero;fill:rgb(100%,0%,0%);fill-opacity:1;" d="M 83.316406 228.09375 C 83.316406 232.628906 76.515625 232.628906 76.515625 228.09375 C 76.515625 223.558594 83.316406 223.558594 83.316406 228.09375 "/>
<path style=" stroke:none;fill-rule:nonzero;fill:rgb(100%,0%,0%);fill-opacity:1;" d="M 122.464844 182.570312 C 122.464844 187.105469 115.664062 187.105469 115.664062 182.570312 C 115.664062 178.035156 122.464844 178.035156 122.464844 182.570312 "/>
<path style=" stroke:none;fill-rule:nonzero;fill:rgb(100%,0%,0%);fill-opacity:1;" d="M 161.613281 139.28125 C 161.613281 143.816406 154.8125 143.816406 154.8125 139.28125 C 154.8125 134.746094 161.613281 134.746094 161.613281 139.28125 "/>
<path style=" stroke:none;fill-rule:nonzero;fill:rgb(100%,0%,0%);fill-opacity:1;" d="M 200.761719 105.804688 C 200.761719 110.339844 193.960938 110.339844 193.960938 105.804688 C 193.960938 101.269531 200.761719 101.269531 200.761719 105.804688 "/>
<path style=" stroke:none;fill-rule:nonzero;fill:rgb(100%,0%,0%);fill-opacity:1;" d="M 239.910156 85.175781 C 239.910156 89.710938 233.109375 89.710938 233.109375 85.175781 C 233.109375 80.640625 239.910156 80.640625 239.910156 85.175781 "/>
<path style=" stroke:none;fill-rule:nonzero;fill:rgb(100%,0%,0%);fill-opacity:1;" d="M 279.058594 73.933594 C 279.058594 78.46875 272.257812 78.46875 272.257812 73.933594 C 272.257812 69.398438 279.058594 69.398438 279.058594 73.933594 "/>
<path style=" stroke:none;fill-rule:nonzero;fill:rgb(100%,0%,0%);fill-opacity:1;" d="M 318.210938 62.550781 C 318.210938 67.085938 311.40625 67.085938 311.40625 62.550781 C 311.40625 58.015625 318.210938 58.015625 318.210938 62.550781 "/>
<path style=" stroke:none;fill-rule:nonzero;fill:rgb(100%,0%,0%);fill-opacity:1;" d="M 357.359375 54.140625 C 357.359375 58.675781 350.554688 58.675781 350.554688 54.140625 C 350.554688 49.605469 357.359375 49.605469 357.359375 54.140625 "/>
<path style=" stroke:none;fill-rule:nonzero;fill:rgb(100%,0%,0%);fill-opacity:1;" d="M 396.507812 49.621094 C 396.507812 54.15625 389.703125 54.15625 389.703125 49.621094 C 389.703125 45.085938 396.507812 45.085938 396.507812 49.621094 "/>
<path style=" stroke:none;fill-rule:nonzero;fill:rgb(0%,39.215686%,0%);fill-opacity:1;" d="M 83.316406 222.40625 C 83.316406 226.941406 76.515625 226.941406 76.515625 222.40625 C 76.515625 217.871094 83.316406 217.871094 83.316406 222.40625 "/>
<path style=" stroke:none;fill-rule:nonzero;fill:rgb(0%,39.215686%,0%);fill-opacity:1;" d="M 122.464844 228.773438 C 122.464844 233.308594 115.664062 233.308594 115.664062 228.773438 C 115.664062 224.238281 122.464844 224.238281 122.464844 228.773438 "/>
<path style=" stroke:none;fill-rule:nonzero;fill:rgb(0%,39.215686%,0%);fill-opacity:1;" d="M 161.613281 229.3125 C 161.613281 233.851562 154.8125 233.851562 154.8125 229.3125 C 154.8125 224.777344 161.613281 224.777344 161.613281 229.3125 "/>
<path style=" stroke:none;fill-rule:nonzero;fill:rgb(0%,39.215686%,0%);fill-opacity:1;" d="M 200.761719 231.082031 C 200.761719 235.617188 193.960938 235.617188 193.960938 231.082031 C 193.960938 226.546875 200.761719 226.546875 200.761719 231.082031 "/>
<path style=" stroke:none;fill-rule:nonzero;fill:rgb(0%,39.215686%,0%);fill-opacity:1;" d="M 239.910156 229.554688 C 239.910156 234.089844 233.109375 234.089844 233.109375 229.554688 C 233.109375 225.019531 239.910156 225.019531 239.910156 229.554688 "/>
<path style=" stroke:none;fill-rule:nonzero;fill:rgb(0%,39.215686%,0%);fill-opacity:1;" d="M 279.058594 230.570312 C 279.058594 235.105469 272.257812 235.105469 272.257812 230.570312 C 272.257812 226.035156 279.058594 226.035156 279.058594 230.570312 "/>
<path style=" stroke:none;fill-rule:nonzero;fill:rgb(0%,39.215686%,0%);fill-opacity:1;" d="M 318.210938 229.972656 C 318.210938 234.507812 311.40625 234.507812 311.40625 229.972656 C 311.40625 225.4375 318.210938 225.4375 318.210938 229.972656 "/>
<path style=" stroke:none;fill-rule:nonzero;fill:rgb(0%,39.215686%,0%);fill-opacity:1;" d="M 357.359375 230.421875 C 357.359375 234.957031 350.554688 234.957031 350.554688 230.421875 C 350.554688 225.886719 357.359375 225.886719 357.359375 230.421875 "/>
<path style=" stroke:none;fill-rule:nonzero;fill:rgb(0%,39.215686%,0%);fill-opacity:1;" d="M 396.507812 230.34375 C 396.507812 234.878906 389.703125 234.878906 389.703125 230.34375 C 389.703125 225.808594 396.507812 225.808594 396.507812 230.34375 "/>
<path style=" stroke:none;fill-rule:nonzero;fill:rgb(0%,39.215686%,0%);fill-opacity:1;" d="M 435.65625 230.871094 C 435.65625 235.40625 428.851562 235.40625 428.851562 230.871094 C 428.851562 226.335938 435.65625 226.335938 435.65625 230.871094 "/>
<path style="fill:none;stroke-width:1.594488;stroke-linecap:butt;stroke-linejoin:round;stroke:rgb(100%,0%,0%);stroke-opacity:1;stroke-miterlimit:1;" d="M 79.914062 228.09375 L 119.0625 182.570312 L 158.214844 139.28125 L 197.363281 105.804688 L 236.511719 85.175781 L 275.660156 73.933594 L 314.808594 62.550781 L 353.957031 54.140625 L 393.105469 49.621094 "/>
<path style=" stroke:none;fill-rule:nonzero;fill:rgb(100%,0%,0%);fill-opacity:1;" d="M 83.105469 228.09375 C 83.105469 232.347656 76.726562 232.347656 76.726562 228.09375 C 76.726562 223.84375 83.105469 223.84375 83.105469 228.09375 "/>
<path style=" stroke:none;fill-rule:nonzero;fill:rgb(100%,0%,0%);fill-opacity:1;" d="M 122.253906 182.570312 C 122.253906 186.820312 115.875 186.820312 115.875 182.570312 C 115.875 178.316406 122.253906 178.316406 122.253906 182.570312 "/>
<path style=" stroke:none;fill-rule:nonzero;fill:rgb(100%,0%,0%);fill-opacity:1;" d="M 161.402344 139.28125 C 161.402344 143.53125 155.023438 143.53125 155.023438 139.28125 C 155.023438 135.027344 161.402344 135.027344 161.402344 139.28125 "/>
<path style=" stroke:none;fill-rule:nonzero;fill:rgb(100%,0%,0%);fill-opacity:1;" d="M 200.550781 105.804688 C 200.550781 110.058594 194.171875 110.058594 194.171875 105.804688 C 194.171875 101.554688 200.550781 101.554688 200.550781 105.804688 "/>
<path style=" stroke:none;fill-rule:nonzero;fill:rgb(100%,0%,0%);fill-opacity:1;" d="M 239.699219 85.175781 C 239.699219 89.425781 233.320312 89.425781 233.320312 85.175781 C 233.320312 80.921875 239.699219 80.921875 239.699219 85.175781 "/>
<path style=" stroke:none;fill-rule:nonzero;fill:rgb(100%,0%,0%);fill-opacity:1;" d="M 278.847656 73.933594 C 278.847656 78.183594 272.46875 78.183594 272.46875 73.933594 C 272.46875 69.679688 278.847656 69.679688 278.847656 73.933594 "/>
<path style=" stroke:none;fill-rule:nonzero;fill:rgb(100%,0%,0%);fill-opacity:1;" d="M 317.996094 62.550781 C 317.996094 66.800781 311.617188 66.800781 311.617188 62.550781 C 311.617188 58.296875 317.996094 58.296875 317.996094 62.550781 "/>
<path style=" stroke:none;fill-rule:nonzero;fill:rgb(100%,0%,0%);fill-opacity:1;" d="M 357.144531 54.140625 C 357.144531 58.390625 350.765625 58.390625 350.765625 54.140625 C 350.765625 49.886719 357.144531 49.886719 357.144531 54.140625 "/>
<path style=" stroke:none;fill-rule:nonzero;fill:rgb(100%,0%,0%);fill-opacity:1;" d="M 396.292969 49.621094 C 396.292969 53.871094 389.914062 53.871094 389.914062 49.621094 C 389.914062 45.367188 396.292969 45.367188 396.292969 49.621094 "/>
<g clip-path="url(#clip36)" clip-rule="nonzero">
<path style="fill:none;stroke-width:1.062992;stroke-linecap:butt;stroke-linejoin:round;stroke:rgb(0%,0%,0%);stroke-opacity:1;stroke-miterlimit:10;" d="M 40.765625 251.027344 L 489.601562 251.027344 "/>
</g>
</g>
</svg>
